HIERARCHY
ROOT root
{
	OFFSET	0	13.1	24.9
	CHANNELS 6  Xposition Yposition Zposition Xrotation Yrotation Zrotation
	JOINT spine_1
	{
		OFFSET	0	9.99999	0
		CHANNELS 3  Xrotation Yrotation Zrotation
		JOINT spine_2
		{
			OFFSET	0	112	-10
			CHANNELS 3  Xrotation Yrotation Zrotation
			JOINT spine_3
			{
				OFFSET	0	206.5	19.3
				CHANNELS 3  Xrotation Yrotation Zrotation
				JOINT spine_4
				{
					OFFSET	0	110.4	14.6
					CHANNELS 3  Xrotation Yrotation Zrotation
					JOINT neck_1
					{
						OFFSET	0	71.8	-50.3
						CHANNELS 3  Xrotation Yrotation Zrotation
						JOINT neck_2
						{
							OFFSET	0	86.2	-25.8
							CHANNELS 3  Xrotation Yrotation Zrotation
							JOINT head_ee
							{
								OFFSET	0	179.8	-8.7
								CHANNELS 3  Xrotation Yrotation Zrotation
								End Site
								{
									OFFSET	1	0	0
								}
							}
						}
					}
					JOINT left_clavicle
					{
						OFFSET	-43.2	22.4	-70.8
						CHANNELS 3  Xrotation Yrotation Zrotation
						JOINT left_shoulder
						{
							OFFSET	-93.9	-5.79999	48.7
							CHANNELS 3  Xrotation Yrotation Zrotation
							JOINT left_elbow
							{
								OFFSET	-291.4	-30.8	15.2
								CHANNELS 3  Xrotation Yrotation Zrotation
								JOINT left_lowarm_twist
								{
									OFFSET	-110.7	-3.89999	13.6
									CHANNELS 3  Xrotation Yrotation Zrotation
									JOINT left_hand
									{
										OFFSET	-110.7	-3.89999	13.6
										CHANNELS 3  Xrotation Yrotation Zrotation
										JOINT left_ee
										{
											OFFSET	-80.8	-5.10001	12.1
											CHANNELS 3  Xrotation Yrotation Zrotation
											End Site
											{
												OFFSET	1	0	0
											}
										}
									}
								}
							}
						}
					}
					JOINT right_clavicle
					{
						OFFSET	43.2	22.4	-70.8
						CHANNELS 3  Xrotation Yrotation Zrotation
						JOINT right_shoulder
						{
							OFFSET	93.9	-5.79999	48.7
							CHANNELS 3  Xrotation Yrotation Zrotation
							JOINT right_elbow
							{
								OFFSET	291.4	-30.8	15.2
								CHANNELS 3  Xrotation Yrotation Zrotation
								JOINT right_lowarm_twist
								{
									OFFSET	110.7	-3.89999	13.6
									CHANNELS 3  Xrotation Yrotation Zrotation
									JOINT right_hand
									{
										OFFSET	110.7	-3.89999	13.6
										CHANNELS 3  Xrotation Yrotation Zrotation
										JOINT right_ee
										{
											OFFSET	80.8	-5.10001	12.1
											CHANNELS 3  Xrotation Yrotation Zrotation
											End Site
											{
												OFFSET	1	0	0
											}
										}
									}
								}
							}
						}
					}
				}
			}
		}
	}
	JOINT left_hip
	{
		OFFSET	-82.8	-127.5	0.300001
		CHANNELS 3  Xrotation Yrotation Zrotation
		JOINT left_knee
		{
			OFFSET	-28.2	-396.7	2.2
			CHANNELS 3  Xrotation Yrotation Zrotation
			JOINT left_ankle
			{
				OFFSET	-11.7	-411.3	35.4
				CHANNELS 3  Xrotation Yrotation Zrotation
				JOINT left_toes
				{
					OFFSET	0	-60	-88.6
					CHANNELS 3  Xrotation Yrotation Zrotation
					JOINT left_foot_ee
					{
						OFFSET	-22.5	-16.5	-42.2
						CHANNELS 3  Xrotation Yrotation Zrotation
						End Site
						{
							OFFSET	1	0	0
						}
					}
				}
			}
		}
	}
	JOINT right_hip
	{
		OFFSET	82.8	-127.5	0.300001
		CHANNELS 3  Xrotation Yrotation Zrotation
		JOINT right_knee
		{
			OFFSET	28.2	-396.7	2.2
			CHANNELS 3  Xrotation Yrotation Zrotation
			JOINT right_ankle
			{
				OFFSET	11.7	-411.3	35.4
				CHANNELS 3  Xrotation Yrotation Zrotation
				JOINT right_toes
				{
					OFFSET	0	-60	-88.6
					CHANNELS 3  Xrotation Yrotation Zrotation
					JOINT right_foot_ee
					{
						OFFSET	22.5	-16.5	-42.2
						CHANNELS 3  Xrotation Yrotation Zrotation
						End Site
						{
							OFFSET	1	0	0
						}
					}
				}
			}
		}
	}
}
MOTION
Frames: 12
Frame Time: 0.02
3177.02 653.055 -1669.29 -19.9940763171 60.1887950154 16.3613106099 4.86753 0.727826 3.10268 4.87273 0.52902 3.14265 4.8974 0.129417 3.18419 4.88381 0.630429 3.1239 -7.56661 8.09373 -3.31646 -7.5385 17.4363 -1.58694 -0.0 0.0 -0.0 -7.06725 25.1923 -6.50239 -28.6595 -11.608 72.3817 0.33726 -9.48493 0.0279796 -44.5562 -3.44822 4.36835 3.33098 5.05661 24.8173 -0.0 0.0 -0.0 13.0622 24.5624 -25.9826 22.7737 15.6897 -67.725 3.39554 59.2539 -1.93143 -3.40239 0.132236 -0.414241 2.56132 7.6196 -14.1996 0.0 0.0 0.0 30.4306 -1.55601 -10.6849 2.77977 -0.124412 -0.40835 12.798 7.27117 -1.80087 -17.8403 0.0 0.0 -0.0 0.0 -0.0 -6.53495 -11.0298 6.30652 -7.69926 -0.239593 -1.15643 35.4043 17.5278 4.8195 2.05785 -0.0 -0.0 0.0 0.0 0.0 
3134.72816887 654.88 -1664.51779722 -21.1798946187 61.6934451826 18.413321394 5.11048 0.701404 2.97357 5.11526 0.510855 3.01213 5.13778 0.140609 3.05187 5.12532 0.620613 2.99146 -4.58731 6.91901 -3.88303 -4.45673 15.6242 -2.83187 -0.0 0.0 -0.0 -6.77885 24.571 -6.30749 -28.3831 -12.4331 72.3692 0.387852 -10.8759 0.0369223 -44.4344 -3.43462 4.36064 3.30172 5.7782 24.8656 -0.0 0.0 -0.0 12.6502 26.4668 -24.8159 20.8864 15.4385 -67.8906 3.31686 58.6612 -1.86402 -5.79853 0.240035 -0.700981 2.18647 5.57478 -12.4792 0.0 0.0 0.0 31.1468 -0.591272 -9.99009 -2.20068 0.084335 0.32718 7.11646 11.8225 -1.0234 -21.515 0.0 0.0 -0.0 0.0 -0.0 -6.83033 -10.9271 6.71466 -10.4179 -0.286785 -1.5709 34.678 13.2548 4.61308 2.37563 -0.0 -0.0 0.0 0.0 0.0 
3105.0834991 658.608 -1658.48333823 -20.4340627388 62.7384415156 17.070752241 5.09611 0.705111 3.08596 5.10126 0.507413 3.12452 5.12428 0.122768 3.16304 5.11086 0.620527 3.10406 -5.33497 6.60201 -4.59983 -5.20494 15.5846 -3.51442 -0.0 0.0 -0.0 -6.5497 24.0143 -6.16419 -27.975 -12.7733 71.6179 0.426177 -11.9212 0.0444969 -42.8817 -3.26271 4.25986 3.44902 5.96759 26.0108 -0.0 0.0 -0.0 11.5568 26.7365 -22.288 17.0413 14.4378 -69.2899 3.87956 62.4929 -2.35441 -7.78397 0.338396 -0.935041 2.01388 1.51247 -12.9734 0.0 0.0 0.0 30.6528 0.327214 -7.52466 -9.1214 0.266733 1.37297 13.3325 13.4511 -1.88182 -22.0562 0.0 0.0 -0.0 0.0 -0.0 -7.73242 -10.7993 7.9286 -11.0244 -0.294626 -1.66363 34.8102 7.22843 4.49117 4.43431 -0.0 -0.0 0.0 0.0 0.0 
3057.01714457 663.485 -1654.51606388 -22.942175386 66.0007014522 19.6678965578 5.18751 0.617925 3.30978 5.19352 0.406184 3.34234 5.21167 0.000705537 3.3669 5.19625 0.532138 3.32463 -2.87731 6.58253 -5.83852 -2.61188 16.4981 -5.17969 -0.0 0.0 -0.0 -6.12582 22.9511 -5.88794 -26.7827 -14.2736 70.1159 0.484807 -13.5046 0.0574006 -42.3463 -3.20408 4.22404 3.49926 8.6202 27.3002 -0.0 0.0 -0.0 10.1733 27.6749 -19.0643 12.745 13.4287 -70.7149 4.14458 64.0117 -2.5911 -10.9102 0.509585 -1.29638 1.83785 -3.59911 -13.7869 0.0 0.0 0.0 28.8142 -2.13904 -5.15754 -12.3194 0.30808 1.86187 20.5965 11.6567 -2.81335 -26.2682 0.0 0.0 -0.0 0.0 -0.0 -7.08524 -10.77 9.27633 -16.5464 -0.320771 -2.51014 34.0403 -0.778572 4.32002 4.67371 -0.0 -0.0 0.0 0.0 0.0 
3057.13503259 663.485 -1653.58811829 -23.3372089868 66.4083095371 20.0996282641 5.18751 0.617925 3.30978 5.19352 0.406184 3.34234 5.21167 0.000705537 3.3669 5.19625 0.532138 3.32463 -2.87731 6.58253 -5.83852 -2.61188 16.4981 -5.17969 -0.0 0.0 -0.0 -6.12582 22.9511 -5.88794 -26.7827 -14.2736 70.1159 0.484807 -13.5046 0.0574006 -42.3463 -3.20408 4.22404 3.49926 8.6202 27.3002 -0.0 0.0 -0.0 10.1733 27.6749 -19.0643 12.745 13.4287 -70.7149 4.14458 64.0117 -2.5911 -10.9102 0.509585 -1.29638 1.83785 -3.59911 -13.7869 0.0 0.0 0.0 28.8142 -2.13904 -5.15754 -12.3194 0.30808 1.86187 20.5965 11.6567 -2.81335 -26.2682 0.0 0.0 -0.0 0.0 -0.0 -7.08524 -10.77 9.27633 -16.5464 -0.320771 -2.51014 34.0403 -0.778572 4.32002 4.67371 -0.0 -0.0 0.0 0.0 0.0 
3014.49846822 673.235 -1654.68781151 -25.8412824337 69.3558208432 23.028661873 5.12696 0.255385 3.20621 5.13268 0.0509558 3.21595 5.13046 -0.341802 3.19816 5.11623 0.167308 3.212 -2.80786 6.51566 -5.73496 -2.54809 16.2967 -5.09045 -0.0 0.0 -0.0 -5.69962 23.056 -5.2533 -22.7013 -17.1938 66.442 0.569571 -15.7565 0.0788149 -41.6846 -3.13208 4.17901 3.78912 9.87288 29.8685 -0.0 0.0 -0.0 9.55098 26.6213 -17.7945 7.70519 12.3582 -72.5734 3.73424 61.5885 -2.22605 -13.6893 0.678171 -1.60946 1.82325 -4.26362 -13.942 0.0 0.0 0.0 27.2636 -3.02996 -3.98643 -14.1329 0.319383 2.13987 26.1742 8.81145 -3.46832 -28.7445 0.0 0.0 -0.0 0.0 -0.0 -6.69333 -9.07954 6.81435 -21.5346 -0.274245 -3.27386 39.4228 -8.97627 4.8188 4.95473 -0.0 -0.0 0.0 0.0 0.0 
3014.39216 673.235 -1655.9237045 -25.3470007747 68.9629949721 22.4997809239 5.12696 0.255385 3.20621 5.13268 0.0509558 3.21595 5.13046 -0.341802 3.19816 5.11623 0.167308 3.212 -2.80786 6.51566 -5.73496 -2.54809 16.2967 -5.09045 -0.0 0.0 -0.0 -5.69962 23.056 -5.2533 -22.7013 -17.1938 66.442 0.569571 -15.7565 0.0788149 -41.6846 -3.13208 4.17901 3.78912 9.87288 29.8685 -0.0 0.0 -0.0 9.55098 26.6213 -17.7945 7.70519 12.3582 -72.5734 3.73424 61.5885 -2.22605 -13.6893 0.678171 -1.60946 1.82325 -4.26362 -13.942 0.0 0.0 0.0 27.2636 -3.02996 -3.98643 -14.1329 0.319383 2.13987 26.1742 8.81145 -3.46832 -28.7445 0.0 0.0 -0.0 0.0 -0.0 -6.69333 -9.07954 6.81435 -21.5346 -0.274245 -3.27386 39.4228 -8.97627 4.8188 4.95473 -0.0 -0.0 0.0 0.0 0.0 
2993.8504084 676.054 -1652.77384695 -25.1464716546 68.7722155641 22.575951702 5.18717 0.147093 3.11207 5.19256 -0.0511363 3.11512 5.18494 -0.428017 3.08603 5.17166 0.0644897 3.11487 -2.65288 6.44819 -5.56348 -2.39975 16.0413 -4.9425 -0.0 0.0 -0.0 -5.33643 22.5722 -4.87098 -20.5593 -19.0659 65.7812 0.612595 -16.8812 0.0909043 -41.5969 -3.12257 4.17298 3.86421 10.5767 30.6589 -0.0 0.0 -0.0 9.16915 25.0695 -17.1074 5.22873 11.966 -73.0251 3.5016 60.0215 -2.02294 -14.7247 0.744842 -1.72397 1.72363 -5.10363 -13.5853 0.0 0.0 0.0 26.6748 -4.36935 -3.27843 -14.8699 0.321461 2.25293 27.7923 6.84241 -3.64764 -29.9481 0.0 0.0 -0.0 0.0 -0.0 -5.71585 -8.00142 6.70626 -23.045 -0.247064 -3.50402 39.969 -12.2511 4.89429 5.11513 -0.0 -0.0 0.0 0.0 0.0 
2969.75731146 681.319 -1658.59192353 -24.077625264 69.8998327444 21.786186133 5.09626 -0.00632854 3.17435 5.10184 -0.208205 3.16753 5.08549 -0.595938 3.11797 5.07194 -0.0962924 3.1729 -3.51703 6.38872 -5.20581 -3.31104 15.6547 -4.44363 -0.0 0.0 -0.0 -4.77895 21.8155 -4.26911 -16.785 -20.9674 64.5638 0.597256 -16.4817 0.0865012 -41.7535 -3.13955 4.18373 3.88326 11.63 31.1286 -0.0 0.0 -0.0 9.03187 23.9311 -16.9134 1.98389 11.4885 -73.9659 3.13358 57.1976 -1.7087 -15.4247 0.791095 -1.80072 1.7527 -5.12367 -13.7898 0.0 0.0 0.0 24.0845 -4.25759 -2.4848 -15.5407 0.322088 2.35584 29.848 6.92871 -3.87214 -30.8224 0.0 0.0 -0.0 0.0 -0.0 -5.00534 -6.3723 4.15956 -24.2343 -0.221393 -3.68473 41.2597 -14.3595 5.03431 5.71779 -0.0 -0.0 0.0 0.0 0.0 
2969.76760333 681.319 -1658.39435981 -24.1386676741 69.9496848804 21.8511772217 5.09626 -0.00632854 3.17435 5.10184 -0.208205 3.16753 5.08549 -0.595938 3.11797 5.07194 -0.0962924 3.1729 -3.51703 6.38872 -5.20581 -3.31104 15.6547 -4.44363 -0.0 0.0 -0.0 -4.77895 21.8155 -4.26911 -16.785 -20.9674 64.5638 0.597256 -16.4817 0.0865012 -41.7535 -3.13955 4.18373 3.88326 11.63 31.1286 -0.0 0.0 -0.0 9.03187 23.9311 -16.9134 1.98389 11.4885 -73.9659 3.13358 57.1976 -1.7087 -15.4247 0.791095 -1.80072 1.7527 -5.12367 -13.7898 0.0 0.0 0.0 24.0845 -4.25759 -2.4848 -15.5407 0.322088 2.35584 29.848 6.92871 -3.87214 -30.8224 0.0 0.0 -0.0 0.0 -0.0 -5.00534 -6.3723 4.15956 -24.2343 -0.221393 -3.68473 41.2597 -14.3595 5.03431 5.71779 -0.0 -0.0 0.0 0.0 0.0 
2937.53743657 683.457 -1650.1032673 -21.3048424191 69.178180853 18.4828341395 4.89886 0.0421841 2.86174 4.90341 -0.139925 2.85863 4.89271 -0.499529 2.81815 4.88163 -0.0483757 2.86164 -5.20898 6.1854 -4.47128 -5.08608 14.7227 -3.47352 -0.0 0.0 -0.0 -3.76653 20.573 -3.08903 -11.8725 -24.7113 64.2793 0.686622 -18.7849 0.113578 -41.7861 -3.14309 4.18597 3.88952 13.1284 31.6194 -0.0 0.0 -0.0 9.38685 22.9333 -17.795 -1.65039 10.2679 -74.4426 2.45504 50.5629 -1.15966 -17.0576 0.902611 -1.97752 1.56574 -3.13109 -11.7581 0.0 0.0 0.0 20.746 -4.68891 0.209799 -14.4106 0.320337 2.18247 34.7633 10.2894 -4.38997 -33.2221 0.0 0.0 -0.0 0.0 -0.0 -1.86063 1.60017 5.21086 -33.8586 0.12296 -5.11987 40.6889 -24.7219 5.22446 6.69238 -0.0 -0.0 0.0 0.0 0.0 
2922.24978146 691.031 -1645.36873233 -18.8254660428 70.743078706 15.8029389498 4.51419 0.225292 2.82016 4.51861 0.0454544 2.82878 4.51766 -0.330052 2.80984 4.50666 0.117669 2.82669 -4.29703 6.84239 -3.12484 -4.18565 14.9043 -2.10232 -0.0 0.0 -0.0 -3.42782 19.7422 -2.76625 -7.54026 -26.9745 64.1522 0.775111 -21.0051 0.143696 -41.6477 -3.12807 4.17647 3.77089 13.8105 30.9237 -0.0 0.0 -0.0 9.45042 21.8377 -18.0315 -4.28701 9.22579 -73.9499 2.06813 45.6877 -0.871303 -17.4533 0.930396 -2.01989 1.55751 -1.85688 -11.2023 0.0 0.0 0.0 18.82 -6.45357 1.94863 -13.9008 0.318427 2.10427 33.9782 13.6364 -4.33951 -35.1904 0.0 0.0 -0.0 0.0 -0.0 0.725557 5.31077 4.45421 -39.2053 0.416983 -5.88672 40.2707 -24.948 5.19215 7.44261 -0.0 -0.0 0.0 0.0 0.0 
